<svg xmlns="http://www.w3.org/2000/svg" xmlns:xlink="http://www.w3.org/1999/xlink" preserveAspectRatio="xMidYMid meet" version="1.0" viewBox="86.6 -13.2 507.3 63.7" zoomAndPan="magnify" style="fill: rgb(0, 0, 0);" role="img" aria-label="Retro Wavy Squiggly Lines Patterned Shape"><g id="__id184_sw072e9188"><path d="M579.392-10.641c-15.801,0.39-29.242,8.04-38.046,21.074c-3.278,4.853-5.216,9.07-10.368,12.278 c-4.937,3.075-10.96,3.76-16.562,2.498c-13.195-2.971-16.196-17.304-25.64-25.213c-11.965-10.022-28.381-13.184-43.222-8.289 c-6.885,2.271-13.031,6.354-18.109,11.482c-4.901,4.95-7.192,11.63-12.035,16.522c-7.752,7.829-21.179,8.046-29.515,1.066 c-4.922-4.122-7.116-10.302-11.14-15.2c-4.945-6.024-11.41-10.506-18.668-13.295c-13.973-5.369-30.504-3.131-42.433,5.95 c-4.966,3.781-8.968,8.208-12.224,13.552c-2.74,4.496-4.97,8.079-9.544,10.927c-7.805,4.859-18.525,3.94-25.537-1.933 c-3.878-3.247-5.665-7.558-8.433-11.653c-3.768-5.578-8.719-10.034-14.413-13.58c-10.85-6.755-25.058-7.791-37.041-3.837 c-12.65,4.173-20.249,13.259-26.921,24.213c-4.84,7.945-14.987,11.266-23.763,9.291c-11.243-2.531-14.529-12.832-21.113-20.85 c-8.045-9.798-21.083-14.695-33.456-15c-14.562-0.36-14.527,22.21,0,22.569c5.177,0.128,10.153,1.667,14.178,5.038 c5.238,4.386,7.835,11.176,12.138,16.418c9.759,11.885,26.659,16.807,41.453,14.228c15.603-2.719,25.346-12.868,33.217-25.787 c5.776-9.483,18.895-12.37,28.535-7.564c5.204,2.594,8.211,6.725,10.928,11.7c3.691,6.755,9.656,12.215,16.119,16.24 c13.405,8.347,30.366,7.625,44.116,0.773c6.504-3.242,11.525-8.626,15.797-14.353c3.815-5.116,5.596-10.066,11.251-13.586 c9.26-5.765,22.491-3.291,29.034,5.482c3.45,4.626,5.761,9.674,9.696,14.037c4.443,4.925,10.473,8.549,16.614,10.908 c12.289,4.721,25.524,3.306,37.154-2.489c5.016-2.5,9.555-6.5,13.089-10.805c3.705-4.513,5.872-9.984,9.981-14.136 c6.515-6.58,17.17-7.83,25.312-3.773c4.044,2.015,7.077,5.092,9.407,8.917c3.298,5.413,6.536,10.446,11.461,14.573 c10.277,8.607,23.727,12.165,36.925,9.865c12.616-2.199,22.971-9.822,30.05-20.302c2.511-3.716,4.023-7.729,7.725-10.546 c4.147-3.156,8.832-4.709,14-4.837C593.919,11.568,593.954-11.001,579.392-10.641L579.392-10.641z" style="fill: rgb(255, 250, 244);"></path></g></svg>